{
	"accessors" : 
	[
		{
			"bufferView" : 2,
			"byteOffset" : 0,
			"componentType" : 5126,
			"count" : 16077,
			"max" : 
			[
				1,
				1,
				1,
				1
			],
			"min" : 
			[
				5.692175545846112e-05,
				0.006584956776350737,
				0.006584956776350737,
				1
			],
			"name" : "accessor_color_m0-PolyPaper21_-261006",
			"type" : "VEC4"
		},
		{
			"bufferView" : 2,
			"byteOffset" : 257232,
			"componentType" : 5126,
			"count" : 502,
			"max" : 
			[
				1,
				1,
				1,
				1
			],
			"min" : 
			[
				1,
				1,
				1,
				1
			],
			"name" : "accessor_color_m1-PolyGlass24_-261012",
			"type" : "VEC4"
		},
		{
			"bufferView" : 0,
			"byteOffset" : 0,
			"componentType" : 5123,
			"count" : 23199,
			"max" : 
			[
				16076
			],
			"min" : 
			[
				0
			],
			"name" : "accessor_indices_0_m0-PolyPaper21_-261006",
			"type" : "SCALAR"
		},
		{
			"bufferView" : 0,
			"byteOffset" : 46398,
			"componentType" : 5123,
			"count" : 576,
			"max" : 
			[
				501
			],
			"min" : 
			[
				0
			],
			"name" : "accessor_indices_0_m1-PolyGlass24_-261012",
			"type" : "SCALAR"
		},
		{
			"bufferView" : 1,
			"byteOffset" : 192924,
			"componentType" : 5126,
			"count" : 16077,
			"max" : 
			[
				0.9997752,
				0.999895,
				0.9997322
			],
			"min" : 
			[
				-0.9998831,
				-0.999895,
				-0.9997322
			],
			"name" : "accessor_normal_m0-PolyPaper21_-261006",
			"type" : "VEC3"
		},
		{
			"bufferView" : 1,
			"byteOffset" : 391872,
			"componentType" : 5126,
			"count" : 502,
			"max" : 
			[
				0.9873936,
				0.9905745,
				0.9969543
			],
			"min" : 
			[
				-0.9988699,
				-0.9974619,
				-0.9967673
			],
			"name" : "accessor_normal_m1-PolyGlass24_-261012",
			"type" : "VEC3"
		},
		{
			"bufferView" : 1,
			"byteOffset" : 0,
			"componentType" : 5126,
			"count" : 16077,
			"max" : 
			[
				0.9237957999999999,
				2.940359,
				-0.5844184
			],
			"min" : 
			[
				-0.5537529,
				0.6747589000000001,
				-3.309425
			],
			"name" : "accessor_position_m0-PolyPaper21_-261006",
			"type" : "VEC3"
		},
		{
			"bufferView" : 1,
			"byteOffset" : 385848,
			"componentType" : 5126,
			"count" : 502,
			"max" : 
			[
				0.5797763,
				2.358323,
				-0.815272
			],
			"min" : 
			[
				0.2137089,
				1.627028,
				-1.180982
			],
			"name" : "accessor_position_m1-PolyGlass24_-261012",
			"type" : "VEC3"
		}
	],
	"asset" : 
	{
		"copyright" : "Unknown",
		"generator" : "glTF 1-to-2 Upgrader for Google Blocks",
		"version" : "2.0"
	},
	"bufferViews" : 
	[
		{
			"buffer" : 0,
			"byteLength" : 47550,
			"byteOffset" : 0,
			"name" : "ushortBufferView",
			"target" : 34963
		},
		{
			"buffer" : 0,
			"byteLength" : 397896,
			"byteOffset" : 47550,
			"byteStride" : 12,
			"name" : "vec3BufferView",
			"target" : 34962
		},
		{
			"buffer" : 0,
			"byteLength" : 265264,
			"byteOffset" : 445446,
			"byteStride" : 16,
			"name" : "vec4BufferView",
			"target" : 34962
		}
	],
	"buffers" : 
	[
		{
			"byteLength" : 710710,
			"name" : "model",
			"uri" : "model.bin"
		}
	],
	"materials" : 
	[
		{
			"alphaMode" : "OPAQUE",
			"doubleSided" : false,
			"name" : "BlocksPaper",
			"pbrMetallicRoughness" : 
			{
				"baseColorFactor" : 
				[
					1,
					1,
					1,
					1
				],
				"metallicFactor" : 0,
				"roughnessFactor" : 0.6
			}
		},
		{
			"alphaMode" : "BLEND",
			"doubleSided" : false,
			"name" : "BlocksGlass",
			"pbrMetallicRoughness" : 
			{
				"baseColorFactor" : 
				[
					0.2,
					0.2,
					1,
					0.3
				],
				"metallicFactor" : 1,
				"roughnessFactor" : 0.4
			}
		},
		{
			"alphaMode" : "OPAQUE",
			"doubleSided" : true,
			"name" : "BlocksGem",
			"pbrMetallicRoughness" : 
			{
				"baseColorFactor" : 
				[
					1,
					0.4,
					1,
					1
				],
				"metallicFactor" : 0,
				"roughnessFactor" : 0.1
			}
		}
	],
	"meshes" : 
	[
		{
			"name" : "mesh_m0-PolyPaper21_-261006",
			"primitives" : 
			[
				{
					"attributes" : 
					{
						"COLOR_0" : 0,
						"NORMAL" : 4,
						"POSITION" : 6
					},
					"indices" : 2,
					"material" : 0,
					"mode" : 4
				}
			]
		},
		{
			"name" : "mesh_m1-PolyGlass24_-261012",
			"primitives" : 
			[
				{
					"attributes" : 
					{
						"COLOR_0" : 1,
						"NORMAL" : 5,
						"POSITION" : 7
					},
					"indices" : 3,
					"material" : 1,
					"mode" : 4
				}
			]
		}
	],
	"nodes" : 
	[
		{
			"matrix" : 
			[
				1,
				0,
				0,
				0,
				0,
				1,
				0,
				0,
				0,
				0,
				1,
				0,
				0,
				0,
				0,
				1
			],
			"mesh" : 0,
			"name" : "node_MeshObject118153216-PolyPaper21"
		},
		{
			"matrix" : 
			[
				1,
				0,
				0,
				0,
				0,
				1,
				0,
				0,
				0,
				0,
				1,
				0,
				0,
				0,
				0,
				1
			],
			"mesh" : 1,
			"name" : "node_MeshObject690232320-PolyGlass24"
		}
	],
	"scene" : 0,
	"scenes" : 
	[
		{
			"extras" : {},
			"name" : "defaultScene",
			"nodes" : 
			[
				0,
				1
			]
		}
	]
}